<?xml version="1.0" encoding="UTF-8"?>
<svg width="5647px" height="8500px" viewBox="0 0 5647 8500" version="1.1" xmlns="http://www.w3.org/2000/svg" xmlns:xlink="http://www.w3.org/1999/xlink">
    <title>feature-bg</title>
    <g id="guinsoolab-elixir" stroke="none" stroke-width="1" fill="none" fill-rule="evenodd">
        <g id="feature-bg" fill-rule="nonzero">
            <rect id="Rectangle" fill="#1E2020" x="0" y="0" width="5647" height="8500"></rect>
            <path d="M3104.57005,713.636051 C3116.83263,725.256663 3117.35304,744.617812 3105.73243,756.880388 C3105.35545,757.27819 3104.96785,757.665789 3104.57005,758.042766 L2765.28985,1079.56115 C2752.15109,1092.01208 2731.56871,1092.01208 2718.42995,1079.56115 C2706.16737,1067.94054 2705.64696,1048.57939 2717.26757,1036.31682 C2717.64455,1035.91901 2718.03215,1035.53141 2718.42995,1035.15444 L3057.71015,713.636051 C3070.84891,701.185126 3091.43129,701.185126 3104.57005,713.636051 Z" id="Rectangle" fill="#288ED7"></path>
            <path d="M3145.59381,807.966151 C3157.85691,819.599554 3158.36738,838.971496 3146.73398,851.234595 C3146.364,851.624597 3145.98382,852.004785 3145.59381,852.374761 L3063.21856,930.520143 C3050.09693,942.967988 3029.52781,942.967988 3016.40619,930.520143 C3004.14309,918.88674 3003.63262,899.514798 3015.26602,887.251699 C3015.636,886.861697 3016.01618,886.48151 3016.40619,886.111534 L3098.78144,807.966151 C3111.90307,795.518306 3132.47219,795.518306 3145.59381,807.966151 Z" id="Rectangle" fill="#288ED7"></path>
            <path d="M1458.79069,1833.06093 C1468.85446,1842.60748 1469.27375,1858.50478 1459.7272,1868.56855 C1459.42331,1868.8889 1459.11103,1869.20118 1458.79069,1869.50506 L1180.62794,2133.37187 C1169.85896,2143.58739 1152.97829,2143.58739 1142.20931,2133.37187 C1132.14554,2123.82532 1131.72625,2107.92802 1141.2728,2097.86425 C1141.57669,2097.5439 1141.88897,2097.23163 1142.20931,2096.92774 L1420.37206,1833.06093 C1431.14104,1822.84541 1448.02171,1822.84541 1458.79069,1833.06093 Z" id="Rectangle" fill="#288ED7"></path>
            <g id="Rectangle-2" transform="translate(1300.436138, 1709.843350)" fill="#1E2020">
                <path d="M114.280352,7.6599 C124.326402,17.13625 124.788232,32.96227 115.311882,43.00831 C114.978142,43.36211 114.634162,43.7061 114.280352,44.03984 L46.414382,108.05724 C35.587182,118.27044 18.674562,118.27044 7.84737197,108.05724 C-2.19867803,98.58089 -2.66050803,82.75487 6.81584197,72.70883 C7.14958197,72.35503 7.49356197,72.01104 7.84737197,71.6773 L75.713342,7.6599 C86.540542,-2.5533 103.453162,-2.5533 114.280352,7.6599 Z" id="Rectangle"></path>
            </g>
            <path d="M5647,0 L5647,90.5444759 C5400.80481,7.67139679 5098.60581,-29.2563628 4744.89509,45.0384565 C4552.6591,86.9431011 4365.68285,146.972783 4179.23224,208.634461 L4153.21884,217.24735 C3914.78496,296.265483 3676.85083,376.698576 3429.50992,424.03358 C3024.45957,501.541219 2599.61508,487.381434 2198.9744,383.032248 C1997.31962,330.487857 1767.96147,300.017497 1475.42143,302.186181 C1014.48555,305.603225 786.289172,404.322946 513.740383,548.809409 C382.757544,618.247424 192.609734,748.431799 0,899.900122 L0,0 L5647,0 Z" id="bg_01" fill="#1E2020"></path>
            <path d="M5647,7771.77894 L5647,8500 L0,8500 L0,8430.34194 C181.774287,8487.84412 372.299265,8513.05687 541.564854,8493.33329 C728.244387,8471.5663 898.900576,8380.98659 1069.24603,8287.95387 L1087.8287,8277.7983 L1097.45639,8272.53565 C1102.27048,8269.90475 1107.08501,8267.27481 1111.90035,8264.64734 L1121.53218,8259.39612 L1131.16678,8254.15414 C1250.01309,8189.57089 1369.63323,8127.70156 1495.34863,8091.02029 C2088.99895,7917.80895 2686.24348,7885.44964 3305.44047,7883.05031 C4088.86536,7879.98294 4919.83414,8005.81025 5647,7771.77894 Z" id="bg_02" fill="#1E2020"></path>
        </g>
    </g>
</svg>