<?xml version="1.0" encoding="UTF-8"?>
<svg width="51px" height="51px" viewBox="0 0 51 51" version="1.1" xmlns="http://www.w3.org/2000/svg" xmlns:xlink="http://www.w3.org/1999/xlink">
    <!-- Generator: Sketch 53.2 (72643) - https://sketchapp.com -->
    <title>cloud</title>
    <desc>Created with Sketch.</desc>
    <g id="Styleguide" stroke="none" stroke-width="1" fill="none" fill-rule="evenodd">
        <g transform="translate(-450.000000, -4162.000000)" id="cloud">
            <g transform="translate(449.000000, 4160.000000)">
                <path d="M52,27.5 C52,33.2672272 47.2086335,37.9589844 41.4414062,37.9589844 L11.5585938,37.9589844 C5.79136653,37.9589844 1,33.2672272 1,27.5 C1,23.4658203 3.36066439,19.7900009 6.9765625,18.0869141 C7.21585848,14.232109 10.4827347,11.153946 14.3675003,11.0644531 C16.5192184,6.10382846 21.1806259,2.62761686 26.5,2.08949285 C26.9782028,2.02996061 27.4863663,2 27.9941406,2 C36.2418747,2 42.9355469,8.79328158 42.9355469,17.0410156 L42.9355469,17.1604691 C48.0455856,17.9375 52,22.2705078 52,27.5 Z" id="Path" fill="#F2F2FC" fill-rule="nonzero"></path>
                <path d="M52,27.5 C52,33.2672272 47.2086335,37.9589844 41.4414062,37.9589844 L26.5,37.9589844 L26.5,2.08949285 C26.9782028,2.02996061 27.4863663,2 27.9941406,2 C36.2418747,2 42.9355469,8.79328158 42.9355469,17.0410156 L42.9355469,17.1604691 C48.0455856,17.9375 52,22.2705078 52,27.5 Z" id="Path" fill="#D8D8FC" fill-rule="nonzero"></path>
                <path d="M35.4648438,40.9472656 C35.4648438,40.37957 35.4049225,39.841446 35.3154297,39.3037109 L38.3336715,37.5702743 L35.3453903,32.3707428 L32.2971878,34.1637116 C31.4606247,33.4466019 30.5341797,32.9088669 29.4882813,32.5201569 L29.4882813,28.9941406 L23.5117188,28.9941406 L23.5117188,32.5201569 C22.4658203,32.9088669 21.5393753,33.4466019 20.7028122,34.1637116 L17.6546097,32.3707428 L14.6663285,37.5706634 L17.6845703,39.3037109 C17.5950775,39.841835 17.5351563,40.37957 17.5351563,40.9472656 C17.5351563,41.5149613 17.5950775,42.0530853 17.6845703,42.5908203 L14.6663285,44.3242569 L17.6546097,49.5237884 L20.7028122,47.7308197 C21.5393753,48.4483185 22.4658203,48.9860535 23.5117188,49.3743743 L23.5117188,53 L29.4882813,53 L29.4882813,49.3743743 C30.5341797,48.9856644 31.4606247,48.4479294 32.2971878,47.7304306 L35.3453903,49.5237884 L38.3336715,44.3238678 L35.3154297,42.5908203 C35.4049225,42.0530853 35.4648438,41.5149613 35.4648438,40.9472656 L35.4648438,40.9472656 Z M26.5,45.4296875 C24.0194931,45.4296875 22.0175781,43.4273835 22.0175781,40.9472656 C22.0175781,38.4667587 24.0194931,36.4648437 26.5,36.4648437 C28.9805069,36.4648437 30.9824219,38.4667587 30.9824219,40.9472656 C30.9824219,43.4273835 28.9805069,45.4296875 26.5,45.4296875 Z" id="Shape" fill="#68F09F" fill-rule="nonzero"></path>
                <path d="M35.3154297,42.5908203 L38.3336715,44.3242569 L35.3453903,49.5237884 L32.2971878,47.7304306 C31.4606247,48.4479294 30.5341797,48.9856644 29.4882812,49.3743743 L29.4882812,53 L26.5,53 L26.5,45.4296875 C28.9805069,45.4296875 30.9824219,43.4273835 30.9824219,40.9472656 C30.9824219,38.4667587 28.9805069,36.4648438 26.5,36.4648438 L26.5,28.9941406 L29.4882812,28.9941406 L29.4882812,32.5201569 C30.5341797,32.9088669 31.4606247,33.4466019 32.2971878,34.1637116 L35.3453903,32.3711319 L38.3336715,37.5706634 L35.3154297,39.3037109 C35.4049225,39.841446 35.4648438,40.37957 35.4648438,40.9472656 C35.4648438,41.5149613 35.4049225,42.0530853 35.3154297,42.5908203 L35.3154297,42.5908203 Z" id="Path" fill="#1FDC6B" fill-rule="nonzero"></path>
                <rect id="Rectangle" x="0" y="0" width="54" height="54"></rect>
            </g>
        </g>
    </g>
</svg>