<?xml version="1.0" encoding="UTF-8"?>
<svg width="51px" height="51px" viewBox="0 0 51 51" version="1.1" xmlns="http://www.w3.org/2000/svg" xmlns:xlink="http://www.w3.org/1999/xlink">
    <!-- Generator: Sketch 53.2 (72643) - https://sketchapp.com -->
    <title>database</title>
    <desc>Created with Sketch.</desc>
    <g id="Website" stroke="none" stroke-width="1" fill="none" fill-rule="evenodd">
        <g id="Company" transform="translate(-980.000000, -1382.000000)" fill-rule="nonzero">
            <g id="database" transform="translate(980.000000, 1382.000000)">
                <polygon id="Shape" fill="#062C3F" points="2.98828125 45.0234375 16.5351562 45.0234375 16.5351562 48.0117188 2.98828125 48.0117188"></polygon>
                <polygon id="Shape" fill="#062C3F" points="34.4648438 45.0234375 48.0117188 45.0234375 48.0117188 48.0117188 34.4648438 48.0117188"></polygon>
                <polygon id="Shape" fill="#235067" points="24.0058594 34.4648438 26.9941406 34.4648438 26.9941406 43.5292969 24.0058594 43.5292969"></polygon>
                <polygon id="Shape" fill="#062C3F" points="25.5 34.4648438 26.9941406 34.4648438 26.9941406 43.5292969 25.5 43.5292969"></polygon>
                <polygon id="Shape" fill="#61729B" points="51 0 51 18.0292969 45.551445 21.0175781 5.34894564 21.0175781 0 18.0292969 0 0"></polygon>
                <polygon id="Shape" fill="#47568C" points="51 0 51 18.0292969 45.551445 21.0175781 25.5 21.0175781 25.5 0"></polygon>
                <polygon id="Shape" fill="#47568C" points="0 18.0292969 51 18.0292969 51 35.9589844 0 35.9589844"></polygon>
                <polygon id="Shape" fill="#2C3B73" points="25.5 18.0292969 51 18.0292969 51 35.9589844 25.5 35.9589844"></polygon>
                <g id="Group" transform="translate(29.982422, 4.582031)" fill="#1FDC6B">
                    <polygon id="Shape" points="11.953125 0 14.9414062 0 14.9414062 2.98828125 11.953125 2.98828125"></polygon>
                    <polygon id="Shape" points="5.9765625 0 8.96484375 0 8.96484375 2.98828125 5.9765625 2.98828125"></polygon>
                    <polygon id="Shape" points="0 0 2.98828125 0 2.98828125 2.98828125 0 2.98828125"></polygon>
                    <polygon id="Shape" points="0 5.9765625 2.98828125 5.9765625 2.98828125 8.96484375 0 8.96484375"></polygon>
                    <polygon id="Shape" points="5.9765625 5.9765625 8.96484375 5.9765625 8.96484375 8.96484375 5.9765625 8.96484375"></polygon>
                    <polygon id="Shape" points="11.953125 5.9765625 14.9414062 5.9765625 14.9414062 8.96484375 11.953125 8.96484375"></polygon>
                    <polygon id="Shape" points="11.953125 19.4238281 14.9414062 19.4238281 14.9414062 22.4121094 11.953125 22.4121094"></polygon>
                    <polygon id="Shape" points="5.9765625 19.4238281 8.96484375 19.4238281 8.96484375 22.4121094 5.9765625 22.4121094"></polygon>
                    <polygon id="Shape" points="0 19.4238281 2.98828125 19.4238281 2.98828125 22.4121094 0 22.4121094"></polygon>
                    <polygon id="Shape" points="0 25.4003906 2.98828125 25.4003906 2.98828125 28.3886719 0 28.3886719"></polygon>
                    <polygon id="Shape" points="5.9765625 25.4003906 8.96484375 25.4003906 8.96484375 28.3886719 5.9765625 28.3886719"></polygon>
                    <polygon id="Shape" points="11.953125 25.4003906 14.9414062 25.4003906 14.9414062 28.3886719 11.953125 28.3886719"></polygon>
                </g>
                <polygon id="Shape" fill="#47568C" points="5.9765625 4.58203125 26.9941406 4.58203125 26.9941406 7.5703125 5.9765625 7.5703125"></polygon>
                <polygon id="Shape" fill="#47568C" points="5.9765625 10.5585938 26.9941406 10.5585938 26.9941406 13.546875 5.9765625 13.546875"></polygon>
                <polygon id="Shape" fill="#68F09F" points="15.0410156 42.0351562 15.0410156 51 35.9589844 51 35.9589844 42.0351562"></polygon>
                <polygon id="Shape" fill="#2C3B73" points="25.5 4.58203125 26.9941406 4.58203125 26.9941406 7.5703125 25.5 7.5703125"></polygon>
                <polygon id="Shape" fill="#2C3B73" points="25.5 10.5585938 26.9941406 10.5585938 26.9941406 13.546875 25.5 13.546875"></polygon>
                <polygon id="Shape" fill="#2C3B73" points="5.9765625 22.5117188 26.9941406 22.5117188 26.9941406 25.5 5.9765625 25.5"></polygon>
                <polygon id="Shape" fill="#2C3B73" points="5.9765625 28.4882812 26.9941406 28.4882812 26.9941406 31.4765625 5.9765625 31.4765625"></polygon>
                <polygon id="Shape" fill="#23305B" points="25.5 22.5117188 26.9941406 22.5117188 26.9941406 25.5 25.5 25.5"></polygon>
                <polygon id="Shape" fill="#23305B" points="25.5 28.4882812 26.9941406 28.4882812 26.9941406 31.4765625 25.5 31.4765625"></polygon>
                <polygon id="Shape" fill="#1FDC6B" points="25.5 42.0351562 35.9589844 42.0351562 35.9589844 51 25.5 51"></polygon>
            </g>
        </g>
    </g>
</svg>