<svg height="51" viewBox="0 0 51 51" width="51" xmlns="http://www.w3.org/2000/svg"><g fill="none" transform="translate(0 -1)"><path d="m14.9414062 46.0234375h21.1171876v2.9882813h-21.1171876z" fill="#062c3f"/><path d="m0 0h52v52h-52z"/><g fill="#062c3f"><path d="m42.0351562 46.0234375h8.9648438v2.9882813h-8.9648438z"/><path d="m25.5 46.0234375h10.5585938v2.9882813h-10.5585938z"/><path d="m0 46.0234375h8.96484375v2.9882813h-8.96484375z"/></g><path d="m22.4121094 39.8476562h-20.91796878v-38.8476562h20.91796878z" fill="#7b90c2"/><path d="m11.953125 1h10.4589844v38.8476562h-10.4589844z" fill="#9faccb"/><path d="m10.4589844 32.3769531h2.9882812v12.1523438h-2.9882812z" fill="#062c3f"/><path d="m11.953125 52c-2.47155762 0-4.48242188-2.0108643-4.48242188-4.4824219s2.01086426-4.4824219 4.48242188-4.4824219c2.4715576 0 4.4824219 2.0108643 4.4824219 4.4824219s-2.0108643 4.4824219-4.4824219 4.4824219z" fill="#1fdc6b"/><g fill="#9faccb" transform="translate(7.470703 6.976562)"><path d="m0 0h8.96484375v2.98828125h-8.96484375z"/><path d="m0 5.9765625h8.96484375v2.98828125h-8.96484375z"/><path d="m0 11.953125h8.96484375v2.9882812h-8.96484375z"/></g><path d="m11.953125 6.9765625h4.4824219v2.98828125h-4.4824219z" fill="#7b90c2"/><path d="m11.953125 12.953125h4.4824219v2.9882812h-4.4824219z" fill="#7b90c2"/><path d="m11.953125 18.9296875h4.4824219v2.9882813h-4.4824219z" fill="#7b90c2"/><path d="m11.953125 32.3769531h1.4941406v12.1523438h-1.4941406z" fill="#062c3f"/><path d="m11.953125 33.8710938c-2.47155762 0-4.48242188-2.0108643-4.48242188-4.4824219s2.01086426-4.4824219 4.48242188-4.4824219c2.4715576 0 4.4824219 2.0108643 4.4824219 4.4824219s-2.0108643 4.4824219-4.4824219 4.4824219z" fill="#1fdc6b"/><path d="m16.4355469 29.3886719c0-2.4715576-2.0108643-4.4824219-4.4824219-4.4824219v8.9648438c2.4715576 0 4.4824219-2.0108643 4.4824219-4.4824219z" fill="#1fdc6b"/><path d="m16.4355469 47.5175781c0-2.4715576-2.0108643-4.4824219-4.4824219-4.4824219v8.9648438c2.4715576 0 4.4824219-2.0108643 4.4824219-4.4824219z" fill="#1fdc6b"/><path d="m49.5058594 39.8476562h-20.9179688v-38.8476562h20.9179688z" fill="#7b90c2"/><path d="m39.046875 1h10.4589844v38.8476562h-10.4589844z" fill="#9faccb"/><path d="m37.5527344 32.3769531h2.9882812v12.1523438h-2.9882812z" fill="#062c3f"/><path d="m39.046875 52c-2.4715576 0-4.4824219-2.0108643-4.4824219-4.4824219s2.0108643-4.4824219 4.4824219-4.4824219 4.4824219 2.0108643 4.4824219 4.4824219-2.0108643 4.4824219-4.4824219 4.4824219z" fill="#1fdc6b"/><path d="m34.5644531 6.9765625h8.9648438v2.98828125h-8.9648438z" fill="#9faccb"/><path d="m34.5644531 12.953125h8.9648438v2.9882812h-8.9648438z" fill="#9faccb"/><path d="m34.5644531 18.9296875h8.9648438v2.9882813h-8.9648438z" fill="#9faccb"/><path d="m39.046875 6.9765625h4.4824219v2.98828125h-4.4824219z" fill="#7b90c2"/><path d="m39.046875 12.953125h4.4824219v2.9882812h-4.4824219z" fill="#7b90c2"/><path d="m39.046875 18.9296875h4.4824219v2.9882813h-4.4824219z" fill="#7b90c2"/><path d="m39.046875 32.3769531h1.4941406v12.1523438h-1.4941406z" fill="#062c3f"/><path d="m39.046875 33.8710938c-2.4715576 0-4.4824219-2.0108643-4.4824219-4.4824219s2.0108643-4.4824219 4.4824219-4.4824219 4.4824219 2.0108643 4.4824219 4.4824219-2.0108643 4.4824219-4.4824219 4.4824219z" fill="#1fdc6b"/><path d="m43.5292969 29.3886719c0-2.4715576-2.0108643-4.4824219-4.4824219-4.4824219v8.9648438c2.4715576 0 4.4824219-2.0108643 4.4824219-4.4824219z" fill="#1fdc6b"/><path d="m43.5292969 47.5175781c0-2.4715576-2.0108643-4.4824219-4.4824219-4.4824219v8.9648438c2.4715576 0 4.4824219-2.0108643 4.4824219-4.4824219z" fill="#1fdc6b"/></g></svg>