<?xml version="1.0" encoding="UTF-8"?>
<svg width="48px" height="51px" viewBox="0 0 48 51" version="1.1" xmlns="http://www.w3.org/2000/svg" xmlns:xlink="http://www.w3.org/1999/xlink">
    <!-- Generator: Sketch 53.2 (72643) - https://sketchapp.com -->
    <title>analytical</title>
    <desc>Created with Sketch.</desc>
    <g id="Website" stroke="none" stroke-width="1" fill="none" fill-rule="evenodd">
        <g id="Company" transform="translate(-677.000000, -1382.000000)" fill-rule="nonzero">
            <g id="analytical" transform="translate(677.000000, 1382.000000)">
                <polygon id="Shape" fill="#47568C" points="48 9.06445312 48 32.9707031 45 35.9589844 3 35.9589844 0 32.9707031 0 9.06445312"></polygon>
                <polygon id="Shape" fill="#2C3B73" points="48 9.06445312 48 32.9707031 45 35.9589844 24 35.9589844 24 9.06445312"></polygon>
                <polygon id="Shape" fill="#9BFCFF" points="3 12.0527344 45 12.0527344 45 35.9589844 3 35.9589844"></polygon>
                <polygon id="Shape" fill="#76E2F8" points="24 12.0527344 45 12.0527344 45 35.9589844 24 35.9589844"></polygon>
                <polygon id="Shape" fill="#47568C" points="18 40.4414062 30 40.4414062 30 49.5058594 18 49.5058594"></polygon>
                <polygon id="Shape" fill="#2C3B73" points="24 40.4414062 30 40.4414062 30 49.5058594 24 49.5058594"></polygon>
                <polygon id="Shape" fill="#61729B" points="0 32.9707031 48 32.9707031 48 41.9355469 0 41.9355469"></polygon>
                <polygon id="Shape" fill="#47568C" points="24 32.9707031 48 32.9707031 48 41.9355469 24 41.9355469"></polygon>
                <polygon id="Shape" fill="#61729B" points="12 48.0117188 36 48.0117188 36 51 12 51"></polygon>
                <polygon id="Shape" fill="#47568C" points="24 48.0117188 36 48.0117188 36 51 24 51"></polygon>
                <polygon id="Shape" fill="#9FACCB" points="24 0 36 0 36 28.4882812 24 28.4882812"></polygon>
                <polygon id="Shape" fill="#7B90C2" points="18 6.07617188 30 6.07617188 30 28.4882812 18 28.4882812"></polygon>
                <polygon id="Shape" fill="#0095FF" points="24 6.07617188 30 6.07617188 30 28.4882812 24 28.4882812"></polygon>
                <polygon id="Shape" fill="#1FDC6B" points="12 15.0410156 24 15.0410156 24 28.4882812 12 28.4882812"></polygon>
                <polygon id="Shape" fill="#61729B" points="9 26.9941406 39 26.9941406 39 29.9824219 9 29.9824219"></polygon>
                <polygon id="Shape" fill="#47568C" points="24 26.9941406 39 26.9941406 39 29.9824219 24 29.9824219"></polygon>
            </g>
        </g>
    </g>
</svg>