<?xml version="1.0" encoding="UTF-8"?>
<svg width="51px" height="51px" viewBox="0 0 51 51" version="1.1" xmlns="http://www.w3.org/2000/svg" xmlns:xlink="http://www.w3.org/1999/xlink">
    <!-- Generator: Sketch 53.2 (72643) - https://sketchapp.com -->
    <title>settings</title>
    <desc>Created with Sketch.</desc>
    <g id="Website" stroke="none" stroke-width="1" fill="none" fill-rule="evenodd">
        <g id="Company" transform="translate(-1278.000000, -1382.000000)" fill-rule="nonzero">
            <g id="settings" transform="translate(1278.000000, 1382.000000)">
                <path d="M22.5117188,15.5900345 C19.0378418,16.8250351 16.5351562,20.1082535 16.5351562,24.0058594 L19.9903564,26.9941406 L22.5117188,24.0058594 L22.5117188,15.5900345 Z" id="Shape" fill="#D8D8FC"></path>
                <path d="M34.4648438,24.0058594 C34.4648438,27.7112503 32.1041794,31.1477738 28.4882812,32.4329681 L28.4882812,44.9238281 L22.5117188,44.9238281 L22.5117188,32.4329681 C18.8958206,31.1477738 16.5351562,27.7112503 16.5351562,24.0058594 L34.4648438,24.0058594 Z" id="Shape" fill="#D8D8FC"></path>
                <path d="M28.4882812,15.5900345 L28.4882812,24.0058594 L25.5,24.0058594 L25.5,44.9238281 L28.4882812,44.9238281 L28.4882812,32.4329681 C32.1041794,31.1477738 34.4648438,27.7112503 34.4648438,24.0058594 C34.4648438,20.1082535 31.9621582,16.8250351 28.4882812,15.5900345 Z" id="Shape" fill="#A3A3D1"></path>
                <path d="M47.3144531,20.4498825 C46.7767181,18.0292969 45.8203125,15.7281647 44.5055465,13.6363678 L46.3880081,10.4687118 L40.5312882,4.61199186 L37.3632431,6.49445346 C35.2718353,5.1796875 32.9707031,4.22328191 30.5501175,3.68554688 L29.6536331,0 L21.3463669,0 L20.4498825,3.68554688 C18.0292969,4.22328191 15.7281647,5.1796875 13.6367569,6.49445346 L10.4687118,4.61199186 L4.61199186,10.4687118 L6.49445346,13.6363678 C5.1796875,15.7281647 4.22328191,18.0292969 3.68554688,20.4498825 L0,21.3463669 L0,29.6536331 L3.68554688,30.5501175 C4.22328191,32.9707031 5.1796875,35.2714462 6.49445346,37.3632431 L4.61199186,40.5308991 L10.4687118,46.3880081 L13.6367569,44.5055465 C15.7281647,45.8203125 18.0292969,46.7767181 20.4498825,47.3144531 L21.3463669,51 L29.6536331,51 L30.5501175,47.3144531 C32.9707031,46.7767181 35.2718353,45.8203125 37.3632431,44.5055465 L40.5312882,46.3880081 L46.3880081,40.5308991 L44.5055465,37.3632431 C45.8203125,35.2714462 46.7767181,32.9707031 47.3144531,30.5501175 L51,29.6536331 L51,21.3463669 L47.3144531,20.4498825 Z M25.5,41.9355469 C16.4452743,41.9355469 9.06445312,34.5543366 9.06445312,25.5 C9.06445312,16.4452743 16.4452743,9.06445312 25.5,9.06445312 C34.5547257,9.06445312 41.9355469,16.4452743 41.9355469,25.5 C41.9355469,34.5543366 34.5547257,41.9355469 25.5,41.9355469 Z" id="Shape" fill="#61729B"></path>
                <path d="M51,21.3463669 L51,29.6536331 L47.3144531,30.5501175 C46.7767181,32.9707031 45.8203125,35.2714462 44.5055465,37.3632431 L46.3880081,40.5308991 L40.5312882,46.3880081 L37.3632431,44.5055465 C35.2718353,45.8203125 32.9707031,46.7767181 30.5501175,47.3144531 L29.6536331,51 L25.5,51 L25.5,41.9355469 C34.5547257,41.9355469 41.9355469,34.5543366 41.9355469,25.5 C41.9355469,16.4452743 34.5547257,9.06445312 25.5,9.06445312 L25.5,0 L29.6536331,0 L30.5501175,3.68554688 C32.9707031,4.22328191 35.2718353,5.1796875 37.3632431,6.49445346 L40.5312882,4.61199186 L46.3880081,10.4687118 L44.5055465,13.6363678 C45.8203125,15.7281647 46.7767181,18.0292969 47.3144531,20.4498825 L51,21.3463669 Z" id="Shape" fill="#47568C"></path>
            </g>
        </g>
    </g>
</svg>